<svg width="151" height="210" viewBox="0 0 151 210" fill="none" xmlns="http://www.w3.org/2000/svg">
<path d="M124.049 2H93.049H85.049L79 66.5C80.9999 66.5 78.4509 65 85.5 70C86.9704 71.043 109.049 101 111.049 104C112.649 106.4 110.382 110 109.049 111.5C103.716 116.667 90.047 128.759 86.549 144.5C81.8821 165.5 84.3823 186 88.049 197H98.549C111.549 174.667 139.149 127.5 145.549 117.5C151.949 107.5 148.216 89.3333 145.549 81.5L124.049 2Z" fill="white" stroke="#D1CFD4" stroke-width="2" stroke-linecap="round"/>
<path d="M26.034 2H57.034H65.034L71.083 66.5C69.0831 66.5 71.6321 65 64.583 70C63.1126 71.043 41.0339 101 39.0339 104C37.4339 106.4 39.7006 110 41.0339 111.5C46.3673 116.667 60.036 128.759 63.5341 144.5C68.2009 165.5 65.7007 186 62.034 197H51.534C38.534 174.667 10.934 127.5 4.534 117.5C-1.866 107.5 1.86733 89.3333 4.534 81.5L26.034 2Z" fill="white" stroke="#D1CFD4" stroke-width="2" stroke-linecap="round"/>
<path d="M95.0488 128H138.549" stroke="#D1CFD4" stroke-width="2" stroke-linecap="round"/>
<path d="M55.0342 128H11.5342" stroke="#D1CFD4" stroke-width="2" stroke-linecap="round"/>
<path d="M88.5488 138.5H132.049" stroke="#D1CFD4" stroke-width="2" stroke-linecap="round"/>
<path d="M61.5342 138.5H18.0342" stroke="#D1CFD4" stroke-width="2" stroke-linecap="round"/>
<path fill-rule="evenodd" clip-rule="evenodd" d="M74.5491 1.5H26.0342L10.5342 55L58.083 79C60.4469 76.0058 71.6775 68.8392 75.0356 68.0676C78.3318 68.8392 89.6364 76.0058 92.0002 79L139.549 55L124.049 1.5H75.5342H74.5491Z" fill="#D1CFD5"/>
<path d="M26.0342 1.5V0.5H25.2828L25.0737 1.22172L26.0342 1.5ZM10.5342 55L9.57368 54.7217L9.34275 55.5188L10.0836 55.8927L10.5342 55ZM58.083 79L57.6324 79.8927L58.3617 80.2608L58.8679 79.6196L58.083 79ZM75.0356 68.0676L75.2635 67.094L75.0377 67.0411L74.8117 67.093L75.0356 68.0676ZM92.0002 79L91.2154 79.6196L91.7216 80.2608L92.4508 79.8927L92.0002 79ZM139.549 55L140 55.8927L140.74 55.5188L140.51 54.7217L139.549 55ZM124.049 1.5L125.01 1.22172L124.8 0.5H124.049V1.5ZM26.0342 2.5H74.5491V0.5H26.0342V2.5ZM11.4947 55.2783L26.9947 1.77828L25.0737 1.22172L9.57368 54.7217L11.4947 55.2783ZM58.5336 78.1073L10.9848 54.1073L10.0836 55.8927L57.6324 79.8927L58.5336 78.1073ZM74.8117 67.093C73.8308 67.3184 72.3958 67.9697 70.8345 68.7965C69.2425 69.6395 67.4255 70.7162 65.6461 71.8589C63.8667 73.0016 62.1124 74.2184 60.6475 75.3442C59.2053 76.4527 57.9724 77.5262 57.2981 78.3804L58.8679 79.6196C59.3755 78.9767 60.433 78.0316 61.8662 76.93C63.2769 75.8459 64.9833 74.6614 66.7268 73.5417C68.4703 72.4221 70.2384 71.3753 71.7704 70.564C73.3331 69.7365 74.5613 69.2027 75.2595 69.0423L74.8117 67.093ZM74.8077 69.0413C75.4919 69.2015 76.7139 69.7356 78.2761 70.5638C79.8072 71.3755 81.5792 72.4226 83.3283 73.5425C85.0775 74.6624 86.7914 75.847 88.208 76.9312C89.6478 78.0332 90.7086 78.9778 91.2154 79.6196L92.7851 78.3804C92.1099 77.5251 90.8713 76.451 89.4236 75.343C87.9527 74.2173 86.1912 73.0006 84.4067 71.8581C82.6222 70.7156 80.8023 69.6394 79.2129 68.7967C77.6545 67.9706 76.2273 67.3196 75.2635 67.094L74.8077 69.0413ZM92.4508 79.8927L140 55.8927L139.098 54.1073L91.5496 78.1073L92.4508 79.8927ZM140.51 54.7217L125.01 1.22172L123.089 1.77828L138.589 55.2783L140.51 54.7217ZM124.049 0.5H75.5342V2.5H124.049V0.5ZM75.5342 0.5H74.5491V2.5H75.5342V0.5Z" fill="#D1CFD4"/>
<path d="M82.0489 203C82.0489 199.8 85.7155 197 87.5489 196H99.0488C100.549 196 119.549 202 124.049 203C128.549 204 128.049 208 126.549 208.5C125.049 209 86.5489 208.5 84.0489 208.5C82.0489 208.5 81.8822 204.833 82.0489 203Z" fill="#D1CFD4" stroke="#D1CFD4" stroke-width="2" stroke-linecap="round"/>
<path d="M68.0342 203C68.0342 199.8 64.3675 197 62.5342 196H51.0342C49.5342 196 30.5342 202 26.0342 203C21.5342 204 22.0342 208 23.5342 208.5C25.0342 209 63.5342 208.5 66.0342 208.5C68.0342 208.5 68.2008 204.833 68.0342 203Z" fill="#D1CFD4" stroke="#D1CFD4" stroke-width="2" stroke-linecap="round"/>
</svg>
