<svg width="137" height="177" viewBox="0 0 137 177" fill="none" xmlns="http://www.w3.org/2000/svg">
<path d="M44.1352 93.3255L76.6035 52.1855C78.3826 54.099 81.2736 60.0787 84.6094 68.211C87.9451 76.3433 94.6167 93.3255 95.5062 94.9998C96.2179 96.3393 97.2853 95.5579 97.7301 94.9998C103.423 87.9199 115.224 85.3527 120.413 84.954L121.525 90.2161C118.634 92.3688 102.178 108.155 95.0615 114.374C89.3684 119.349 85.1283 114.533 83.7198 111.504L71.9334 90.2161C65.5287 100.166 51.6222 106.162 45.4695 107.916C45.3213 109.351 43.7794 114.039 38.798 121.31C33.8166 128.582 23.231 133.429 18.5609 134.944L13.6685 130.16C15.8923 128.486 32.7936 107.916 34.7951 104.806C36.3962 102.319 41.689 96.116 44.1352 93.3255Z" fill="#3F4043" stroke="white" stroke-width="2"/>
<path d="M54.7239 79.6294C57.8228 75.5602 69.5258 60.973 75.9503 52.996C76.3066 52.5537 76.9436 52.5056 77.2792 52.9638C80.5379 57.4141 87.762 75.2045 91.3388 84.5252C91.4449 84.8016 91.4239 85.0994 91.2688 85.3516C89.4074 88.3808 82.9661 96.4975 79.1209 101.235C78.6669 101.794 77.7916 101.698 77.4621 101.058L73.123 92.6214C72.7818 91.958 71.8517 91.8837 71.3514 92.4371C70.7598 93.0913 70.1798 93.6244 69.7211 94.0044C69.3423 94.3181 68.7961 94.2569 68.4633 93.8947C67.3028 92.6313 65.3429 90.4637 63.7049 88.5418C61.9427 86.4741 57.5236 82.9583 54.9295 80.9983C54.4938 80.6691 54.393 80.0639 54.7239 79.6294Z" fill="white" stroke="white" stroke-width="2"/>
<path d="M125.083 85.6714C124.016 84.1406 121.525 84.5552 120.413 84.9538L121.525 90.2159C122.34 93.1659 124.06 99.3528 124.416 100.501C124.861 101.936 125.75 104.328 126.64 103.85C127.352 103.467 127.381 101.936 127.307 101.218C127.011 96.6739 126.151 87.2022 125.083 85.6714Z" fill="white" stroke="white" stroke-width="2"/>
<path d="M3.21624 121.788L14.3355 130.16L18.5608 134.704C18.4126 135.262 17.7602 136.666 16.337 137.814C14.9137 138.962 13.2236 137.335 12.5564 136.378C9.44302 132.711 2.99385 125.137 2.10431 124.18C0.992382 122.984 0.769997 122.506 1.21477 121.788C1.57058 121.214 2.69734 121.549 3.21624 121.788Z" fill="white" stroke="white" stroke-width="2"/>
<path d="M39.4652 120.354C37.7603 118.44 33.5498 113.848 30.3474 110.786" stroke="white" stroke-width="2"/>
<path d="M37.2413 123.463C35.5364 121.549 31.3259 116.957 28.1235 113.896" stroke="white" stroke-width="2"/>
<path d="M103.734 89.9766C104.994 93.0063 107.782 99.6397 108.849 101.936" stroke="white" stroke-width="2"/>
<path d="M100.621 92.3687C101.881 95.3983 104.669 102.032 105.736 104.328" stroke="white" stroke-width="2"/>
<path d="M52.8005 131.117L85.2688 89.9766C87.0479 91.8901 89.9389 97.8697 93.2746 106.002C96.6104 114.134 103.282 131.117 104.172 132.791C104.883 134.13 105.951 133.349 106.395 132.791C112.088 125.711 123.89 123.144 129.079 122.745L130.191 128.007C127.3 130.16 110.843 145.946 103.727 152.165C98.0337 157.14 93.7935 152.324 92.3851 149.295L80.5987 128.007C74.194 137.957 60.2875 143.953 54.1348 145.707C53.9866 147.142 52.4447 151.83 47.4633 159.101C42.4818 166.373 31.8963 171.22 27.2262 172.735L22.3337 167.951C24.5576 166.277 41.4589 145.707 43.4603 142.597C45.0615 140.11 50.3543 133.907 52.8005 131.117Z" fill="#3F4043" stroke="white" stroke-width="2"/>
<path d="M63.3892 117.42C66.4881 113.351 78.1911 98.764 84.6156 90.787C84.9719 90.3447 85.6089 90.2966 85.9444 90.7548C89.2032 95.2051 96.4273 112.996 100.004 122.316C100.11 122.593 100.089 122.89 99.9341 123.143C98.0727 126.172 91.6314 134.289 87.7862 139.026C87.3322 139.585 86.4569 139.489 86.1274 138.849L81.7883 130.412C81.4471 129.749 80.517 129.675 80.0166 130.228C79.4251 130.882 78.8451 131.415 78.3863 131.795C78.0076 132.109 77.4614 132.048 77.1286 131.686C75.9681 130.422 74.0082 128.255 72.3702 126.333C70.6079 124.265 66.1889 120.749 63.5948 118.789C63.1591 118.46 63.0583 117.855 63.3892 117.42Z" fill="#3F4043" stroke="white" stroke-width="2"/>
<path d="M133.748 123.462C132.681 121.932 130.19 122.346 129.078 122.745L130.19 128.007C131.006 130.957 132.725 137.144 133.081 138.292C133.526 139.727 134.416 142.119 135.305 141.641C136.017 141.258 136.046 139.727 135.972 139.009C135.676 134.465 134.816 124.993 133.748 123.462Z" fill="white" stroke="white" stroke-width="2"/>
<path d="M11.8815 159.58L23.0008 167.951L27.2261 172.496C27.0778 173.054 26.4255 174.457 25.0022 175.605C23.579 176.753 21.8888 175.127 21.2217 174.17C18.1083 170.502 11.6591 162.928 10.7696 161.972C9.65767 160.776 9.43528 160.297 9.88005 159.58C10.2359 159.006 11.3626 159.34 11.8815 159.58Z" fill="white" stroke="white" stroke-width="2"/>
<path fill-rule="evenodd" clip-rule="evenodd" d="M48.1184 158.131C47.907 158.449 47.6888 158.773 47.4635 159.101C42.4821 166.373 31.8966 171.22 27.2265 172.735L22.334 167.951C23.9308 166.749 33.0952 155.805 38.877 148.577H39.0128C42.2075 151.631 46.4057 156.209 48.1184 158.131Z" fill="white"/>
<path d="M48.1184 158.131L48.9513 158.684L49.3783 158.042L48.8649 157.466L48.1184 158.131ZM47.4635 159.101L46.6385 158.536V158.536L47.4635 159.101ZM27.2265 172.735L26.5273 173.45L26.9598 173.873L27.535 173.686L27.2265 172.735ZM22.334 167.951L21.7325 167.152L20.8026 167.853L21.6349 168.666L22.334 167.951ZM38.877 148.577V147.577H38.3964L38.0962 147.952L38.877 148.577ZM39.0128 148.577L39.7038 147.854L39.4139 147.577H39.0128V148.577ZM47.2855 157.578C47.0767 157.892 46.8612 158.211 46.6385 158.536L48.2885 159.667C48.5164 159.334 48.7373 159.006 48.9513 158.684L47.2855 157.578ZM46.6385 158.536C44.2637 162.003 40.5097 164.943 36.714 167.219C32.9284 169.489 29.1838 171.049 26.9179 171.784L27.535 173.686C29.9392 172.906 33.8224 171.285 37.7425 168.935C41.6524 166.59 45.6819 163.471 48.2885 159.667L46.6385 158.536ZM27.9256 172.02L23.0331 167.236L21.6349 168.666L26.5273 173.45L27.9256 172.02ZM22.9355 168.75C23.2055 168.547 23.5731 168.191 23.9847 167.766C24.4116 167.325 24.9325 166.76 25.5236 166.101C26.7066 164.783 28.1893 163.069 29.7988 161.17C33.0186 157.373 36.7612 152.823 39.6579 149.202L38.0962 147.952C35.211 151.559 31.4805 156.095 28.2734 159.877C26.6695 161.769 25.2003 163.467 24.0352 164.765C23.4523 165.415 22.95 165.959 22.5476 166.375C22.1298 166.806 21.8616 167.055 21.7325 167.152L22.9355 168.75ZM38.877 149.577H39.0128V147.577H38.877V149.577ZM38.3217 149.3C41.4869 152.326 45.6638 156.88 47.3719 158.796L48.8649 157.466C47.1475 155.539 42.9281 150.937 39.7038 147.854L38.3217 149.3Z" fill="white"/>
<path fill-rule="evenodd" clip-rule="evenodd" d="M109.351 129.882C115.504 124.984 124.674 123.084 129.078 122.745L130.19 128.007C128.642 129.16 123.206 134.22 117.397 139.628C116.484 140.477 115.562 141.336 114.644 142.189L114.401 142.119C113.334 139.823 110.546 133.19 109.286 130.16L109.351 129.882Z" fill="white"/>
<path d="M109.351 129.882L108.728 129.099L108.457 129.316L108.377 129.654L109.351 129.882ZM129.078 122.745L130.057 122.538L129.875 121.681L129.002 121.748L129.078 122.745ZM130.19 128.007L130.787 128.809L131.301 128.427L131.168 127.8L130.19 128.007ZM117.397 139.628L118.078 140.36L117.397 139.628ZM114.644 142.189L114.369 143.15L114.912 143.306L115.325 142.921L114.644 142.189ZM114.401 142.119L113.494 142.541L113.687 142.955L114.126 143.081L114.401 142.119ZM109.286 130.16L108.312 129.932L108.239 130.246L108.363 130.544L109.286 130.16ZM109.974 130.664C115.902 125.946 124.839 124.074 129.155 123.742L129.002 121.748C124.508 122.093 115.107 124.023 108.728 129.099L109.974 130.664ZM128.1 122.952L129.212 128.214L131.168 127.8L130.057 122.538L128.1 122.952ZM129.593 127.205C128.769 127.819 126.979 129.414 124.717 131.484C122.434 133.573 119.619 136.193 116.716 138.896L118.078 140.36C120.984 137.655 123.792 135.041 126.067 132.959C128.362 130.859 130.064 129.348 130.787 128.809L129.593 127.205ZM116.716 138.896C115.803 139.746 114.881 140.604 113.964 141.457L115.325 142.921C116.243 142.068 117.166 141.209 118.078 140.36L116.716 138.896ZM114.92 141.228L114.676 141.158L114.126 143.081L114.369 143.15L114.92 141.228ZM115.308 141.698C114.251 139.425 111.473 132.814 110.209 129.776L108.363 130.544C109.62 133.566 112.416 140.222 113.494 142.541L115.308 141.698ZM110.26 130.388L110.325 130.109L108.377 129.654L108.312 129.932L110.26 130.388Z" fill="white"/>
<path d="M33.2383 10.0892L36.1293 3.15283" stroke="white" stroke-width="2" stroke-linecap="round"/>
<path d="M32.4606 27.7885C32.4606 32.8542 28.6593 36.8343 24.1205 36.8343C19.5816 36.8343 15.7803 32.8542 15.7803 27.7885C15.7803 22.7228 19.5816 18.7427 24.1205 18.7427C28.6593 18.7427 32.4606 22.7228 32.4606 27.7885Z" fill="white" stroke="white" stroke-width="2"/>
<path d="M18.5608 1L20.3399 7.21884" stroke="white" stroke-width="2" stroke-linecap="round"/>
<path d="M3.66089 12.959L9.66529 16.786" stroke="white" stroke-width="2" stroke-linecap="round"/>
<path d="M1.2146 36.1599L7.66377 33.7681" stroke="white" stroke-width="2" stroke-linecap="round"/>
<path d="M15.8922 45.0098L12.7788 52.4245" stroke="white" stroke-width="2" stroke-linecap="round"/>
<path d="M27.9011 45.4883L29.4578 52.4247" stroke="white" stroke-width="2" stroke-linecap="round"/>
<path d="M39.2427 36.1606L46.8038 40.7052" stroke="white" stroke-width="2" stroke-linecap="round"/>
<path d="M40.5769 20.853L45.9142 19.1787" stroke="white" stroke-width="2" stroke-linecap="round"/>
</svg>
