<svg width="151" height="210" viewBox="0 0 151 210" fill="none" xmlns="http://www.w3.org/2000/svg">
<path d="M124.049 1.5H93.049H85.049L79 66C80.9999 66 78.4509 64.5 85.5 69.5C86.9704 70.543 109.049 100.5 111.049 103.5C112.649 105.9 110.382 109.5 109.049 111C103.716 116.167 90.047 128.259 86.549 144C81.8821 165 84.3823 185.5 88.049 196.5H98.549C111.549 174.167 139.149 127 145.549 117C151.949 107 148.216 88.8333 145.549 81L124.049 1.5Z" fill="white" stroke="#D1CFD4" stroke-width="2" stroke-linecap="round"/>
<path d="M26.034 1.5H57.034H65.034L71.083 66C69.0831 66 71.6321 64.5 64.583 69.5C63.1126 70.543 41.0339 100.5 39.0339 103.5C37.4339 105.9 39.7006 109.5 41.0339 111C46.3673 116.167 60.036 128.259 63.5341 144C68.2009 165 65.7007 185.5 62.034 196.5H51.534C38.534 174.167 10.934 127 4.534 117C-1.866 107 1.86733 88.8333 4.534 81L26.034 1.5Z" fill="white" stroke="#D1CFD4" stroke-width="2" stroke-linecap="round"/>
<path d="M95.0488 127.5H138.549" stroke="#D1CFD4" stroke-width="2" stroke-linecap="round"/>
<path d="M55.0342 127.5H11.5342" stroke="#D1CFD4" stroke-width="2" stroke-linecap="round"/>
<path d="M88.5488 138H132.049" stroke="#D1CFD4" stroke-width="2" stroke-linecap="round"/>
<path d="M61.5342 138H18.0342" stroke="#D1CFD4" stroke-width="2" stroke-linecap="round"/>
<path fill-rule="evenodd" clip-rule="evenodd" d="M74.5343 1H26.7857C26.3406 1 25.9491 1.2942 25.8252 1.72172L10.7652 53.7029C10.6313 54.1651 10.8456 54.6571 11.2751 54.8739L57.3538 78.1319C57.7782 78.3461 58.2927 78.2324 58.6255 77.893C61.6719 74.7854 70.9768 68.8673 74.5594 67.7021C74.732 67.6459 74.8964 67.5565 75.0394 67.4422C75.1828 67.5587 75.3481 67.65 75.5217 67.7077C79.0721 68.8863 88.4089 74.7909 91.4576 77.8934C91.7908 78.2325 92.3053 78.3461 92.7296 78.1319L138.808 54.8739C139.238 54.6571 139.452 54.1651 139.318 53.7029L124.258 1.72172C124.134 1.2942 123.743 1 123.298 1H75.5492C75.364 1 75.1905 1.05036 75.0417 1.13813C74.893 1.05036 74.7195 1 74.5343 1Z" fill="#D1CFD5"/>
<path d="M25.8252 1.72172L26.7857 2L26.7857 2L25.8252 1.72172ZM10.7652 53.7029L11.7257 53.9812L11.7257 53.9812L10.7652 53.7029ZM11.2751 54.8739L11.7257 53.9812L11.7257 53.9812L11.2751 54.8739ZM57.3538 78.1319L57.8044 77.2392L57.8044 77.2392L57.3538 78.1319ZM58.6255 77.893L57.9114 77.1929L57.9114 77.1929L58.6255 77.893ZM74.5594 67.7021L74.8687 68.653L74.8687 68.653L74.5594 67.7021ZM75.0394 67.4422L75.6697 66.6659L75.0442 66.158L74.4149 66.6612L75.0394 67.4422ZM75.5217 67.7077L75.2066 68.6567L75.2066 68.6567L75.5217 67.7077ZM91.4576 77.8934L92.1709 77.1925L92.1709 77.1925L91.4576 77.8934ZM92.7296 78.1319L92.279 77.2392L92.279 77.2392L92.7296 78.1319ZM138.808 54.8739L138.358 53.9812L138.358 53.9812L138.808 54.8739ZM139.318 53.7029L140.279 53.4247L140.279 53.4247L139.318 53.7029ZM124.258 1.72172L123.298 2L123.298 2L124.258 1.72172ZM75.0417 1.13813L74.5336 1.99939L75.0417 2.29924L75.5499 1.99939L75.0417 1.13813ZM26.7857 2H74.5343V0H26.7857V2ZM26.7857 2L26.7857 2V0C25.8955 0 25.1124 0.58839 24.8647 1.44345L26.7857 2ZM11.7257 53.9812L26.7857 2L24.8647 1.44345L9.80471 53.4247L11.7257 53.9812ZM11.7257 53.9812L11.7257 53.9812L9.80471 53.4246C9.53691 54.349 9.96539 55.333 10.8245 55.7667L11.7257 53.9812ZM57.8044 77.2392L11.7257 53.9812L10.8245 55.7667L56.9032 79.0246L57.8044 77.2392ZM57.9114 77.1929C57.885 77.2198 57.8542 77.2343 57.8303 77.239C57.8193 77.2412 57.8122 77.2408 57.809 77.2404C57.8063 77.2401 57.8054 77.2396 57.8044 77.2392L56.9032 79.0246C57.7611 79.4576 58.7385 79.2062 59.3396 78.593L57.9114 77.1929ZM74.2501 66.7511C72.3247 67.3774 69.0071 69.2133 65.8534 71.2262C62.6905 73.245 59.5197 75.5523 57.9114 77.1929L59.3396 78.593C60.7777 77.1261 63.7826 74.9206 66.9294 72.9121C70.0854 70.8977 73.2116 69.192 74.8687 68.653L74.2501 66.7511ZM74.4149 66.6612C74.3635 66.7022 74.3054 66.7331 74.2501 66.7511L74.8687 68.653C75.1585 68.5588 75.4292 68.4108 75.6638 68.2233L74.4149 66.6612ZM74.409 68.2185C74.6438 68.4092 74.9154 68.5601 75.2066 68.6567L75.8368 66.7586C75.7808 66.74 75.7218 66.7082 75.6697 66.6659L74.409 68.2185ZM75.2066 68.6567C76.8519 69.2029 79.9809 70.9109 83.1407 72.9226C86.2928 74.9295 89.3056 77.1302 90.7443 78.5943L92.1709 77.1925C90.5609 75.5541 87.3809 73.2513 84.2148 71.2355C81.0565 69.2247 77.7418 67.391 75.8368 66.7586L75.2066 68.6567ZM90.7443 78.5943C91.3455 79.206 92.3224 79.4576 93.1802 79.0246L92.279 77.2392C92.2781 77.2396 92.2771 77.2401 92.2744 77.2404C92.2712 77.2408 92.2639 77.2412 92.2528 77.239C92.2287 77.2343 92.1975 77.2196 92.1709 77.1925L90.7443 78.5943ZM93.1802 79.0246L139.259 55.7667L138.358 53.9812L92.279 77.2392L93.1802 79.0246ZM139.259 55.7667C140.118 55.333 140.547 54.349 140.279 53.4247L138.358 53.9812L138.358 53.9812L139.259 55.7667ZM140.279 53.4247L125.219 1.44345L123.298 2L138.358 53.9812L140.279 53.4247ZM125.219 1.44345C124.971 0.588393 124.188 0 123.298 0V2L123.298 2L125.219 1.44345ZM123.298 0H75.5492V2H123.298V0ZM75.5492 0C75.1804 0 74.832 0.100766 74.5336 0.276883L75.5499 1.99939L75.5492 2V0ZM74.5343 2L74.5336 1.99939L75.5499 0.276883C75.2514 0.100766 74.9031 0 74.5343 0V2Z" fill="#D1CFD4"/>
<path d="M82.0489 202.5C82.0489 199.3 85.7155 196.5 87.5489 195.5H99.0488C100.549 195.5 119.549 201.5 124.049 202.5C128.549 203.5 128.049 207.5 126.549 208C125.049 208.5 86.5489 208 84.0489 208C82.0489 208 81.8822 204.333 82.0489 202.5Z" fill="#D1CFD4" stroke="#D1CFD4" stroke-width="2" stroke-linecap="round"/>
<path d="M68.0342 202.5C68.0342 199.3 64.3675 196.5 62.5342 195.5H51.0342C49.5342 195.5 30.5342 201.5 26.0342 202.5C21.5342 203.5 22.0342 207.5 23.5342 208C25.0342 208.5 63.5342 208 66.0342 208C68.0342 208 68.2008 204.333 68.0342 202.5Z" fill="#D1CFD4" stroke="#D1CFD4" stroke-width="2" stroke-linecap="round"/>
</svg>
