<svg width="151" height="210" viewBox="0 0 151 210" fill="none" xmlns="http://www.w3.org/2000/svg">
<path d="M124.049 2H93.049H85.049L79 66.5C80.9999 66.5 78.4509 65 85.5 70C86.9704 71.043 109.049 101 111.049 104C112.649 106.4 110.382 110 109.049 111.5C103.716 116.667 90.047 128.759 86.549 144.5C81.8821 165.5 84.3823 186 88.049 197H98.549C111.549 174.667 139.149 127.5 145.549 117.5C151.949 107.5 148.216 89.3333 145.549 81.5L124.049 2Z" fill="#3F4043" stroke="white" stroke-width="2" stroke-linecap="round"/>
<path d="M26.034 2H57.034H65.034L71.083 66.5C69.0831 66.5 71.6321 65 64.583 70C63.1126 71.043 41.0339 101 39.0339 104C37.4339 106.4 39.7006 110 41.0339 111.5C46.3673 116.667 60.036 128.759 63.5341 144.5C68.2009 165.5 65.7007 186 62.034 197H51.534C38.534 174.667 10.934 127.5 4.534 117.5C-1.866 107.5 1.86733 89.3333 4.534 81.5L26.034 2Z" fill="#3F4043" stroke="white" stroke-width="2" stroke-linecap="round"/>
<path d="M95.0488 128H138.549" stroke="white" stroke-width="2" stroke-linecap="round"/>
<path d="M55.0342 128H11.5342" stroke="white" stroke-width="2" stroke-linecap="round"/>
<path d="M88.5488 138.5H132.049" stroke="white" stroke-width="2" stroke-linecap="round"/>
<path d="M61.5342 138.5H18.0342" stroke="white" stroke-width="2" stroke-linecap="round"/>
<path fill-rule="evenodd" clip-rule="evenodd" d="M74.5338 1.5H26.7852C26.3401 1.5 25.9486 1.7942 25.8247 2.22172L10.7647 54.2029C10.6308 54.6651 10.8451 55.1571 11.2746 55.3739L57.3533 78.6319C57.7777 78.8461 58.2922 78.7324 58.625 78.393C61.6715 75.2854 70.9763 69.3673 74.5589 68.2021C74.7315 68.1459 74.8959 68.0565 75.0389 67.9422C75.1823 68.0587 75.3476 68.15 75.5212 68.2077C79.0716 69.3863 88.4084 75.2909 91.4571 78.3934C91.7903 78.7325 92.3048 78.8461 92.7291 78.6319L138.808 55.3739C139.237 55.1571 139.452 54.6651 139.318 54.2029L124.258 2.22172C124.134 1.7942 123.742 1.5 123.297 1.5H75.5487C75.3635 1.5 75.19 1.55036 75.0412 1.63813C74.8925 1.55036 74.719 1.5 74.5338 1.5Z" fill="white"/>
<path d="M25.8247 2.22172L26.7852 2.5V2.5L25.8247 2.22172ZM10.7647 54.2029L11.7252 54.4812L11.7252 54.4812L10.7647 54.2029ZM11.2746 55.3739L11.7252 54.4812H11.7252L11.2746 55.3739ZM57.3533 78.6319L57.8039 77.7392H57.8039L57.3533 78.6319ZM58.625 78.393L57.9109 77.6929L57.9109 77.6929L58.625 78.393ZM74.5589 68.2021L74.8682 69.153H74.8682L74.5589 68.2021ZM75.0389 67.9422L75.6692 67.1659L75.0437 66.658L74.4144 67.1612L75.0389 67.9422ZM75.5212 68.2077L75.2062 69.1567H75.2062L75.5212 68.2077ZM91.4571 78.3934L92.1704 77.6925L92.1704 77.6925L91.4571 78.3934ZM92.7291 78.6319L92.2785 77.7392H92.2785L92.7291 78.6319ZM138.808 55.3739L138.357 54.4812L138.808 55.3739ZM139.318 54.2029L140.278 53.9247L140.278 53.9247L139.318 54.2029ZM124.258 2.22172L123.297 2.5V2.5L124.258 2.22172ZM75.0412 1.63813L74.5331 2.49938L75.0412 2.79924L75.5494 2.49938L75.0412 1.63813ZM26.7852 2.5H74.5338V0.5H26.7852V2.5ZM26.7852 2.5L26.7852 2.5V0.5C25.895 0.5 25.1119 1.08839 24.8642 1.94345L26.7852 2.5ZM11.7252 54.4812L26.7852 2.5L24.8642 1.94345L9.80422 53.9247L11.7252 54.4812ZM11.7252 54.4812L11.7252 54.4812L9.80422 53.9246C9.53642 54.849 9.9649 55.833 10.824 56.2667L11.7252 54.4812ZM57.8039 77.7392L11.7252 54.4812L10.824 56.2667L56.9027 79.5246L57.8039 77.7392ZM57.9109 77.6929C57.8845 77.7198 57.8537 77.7343 57.8298 77.739C57.8188 77.7412 57.8117 77.7408 57.8085 77.7404C57.8059 77.7401 57.8049 77.7396 57.8039 77.7392L56.9027 79.5246C57.7606 79.9576 58.738 79.7062 59.3391 79.093L57.9109 77.6929ZM74.2496 67.2511C72.3242 67.8774 69.0066 69.7133 65.8529 71.7262C62.69 73.745 59.5193 76.0523 57.9109 77.6929L59.3391 79.093C60.7772 77.6261 63.7821 75.4206 66.9289 73.4121C70.0849 71.3977 73.2111 69.692 74.8682 69.153L74.2496 67.2511ZM74.4144 67.1612C74.363 67.2022 74.3049 67.2331 74.2496 67.2511L74.8682 69.153C75.158 69.0588 75.4287 68.9108 75.6633 68.7233L74.4144 67.1612ZM74.4085 68.7185C74.6433 68.9092 74.9149 69.0601 75.2062 69.1567L75.8363 67.2586C75.7803 67.24 75.7213 67.2082 75.6692 67.1659L74.4085 68.7185ZM75.2062 69.1567C76.8515 69.7029 79.9804 71.4109 83.1402 73.4226C86.2923 75.4295 89.3051 77.6302 90.7439 79.0943L92.1704 77.6925C90.5604 76.0541 87.3804 73.7513 84.2143 71.7355C81.056 69.7247 77.7413 67.891 75.8363 67.2586L75.2062 69.1567ZM90.7438 79.0943C91.345 79.706 92.3219 79.9576 93.1798 79.5246L92.2785 77.7392C92.2776 77.7396 92.2766 77.7401 92.2739 77.7404C92.2707 77.7408 92.2635 77.7412 92.2523 77.739C92.2282 77.7343 92.197 77.7196 92.1704 77.6925L90.7438 79.0943ZM93.1797 79.5246L139.258 56.2667L138.357 54.4812L92.2785 77.7392L93.1797 79.5246ZM139.258 56.2667C140.118 55.833 140.546 54.849 140.278 53.9247L138.357 54.4812V54.4812L139.258 56.2667ZM140.278 53.9247L125.218 1.94345L123.297 2.5L138.357 54.4812L140.278 53.9247ZM125.218 1.94345C124.971 1.08839 124.188 0.5 123.297 0.5V2.5V2.5L125.218 1.94345ZM123.297 0.5H75.5487V2.5H123.297V0.5ZM75.5487 0.5C75.1799 0.5 74.8315 0.600766 74.5331 0.776883L75.5494 2.49938L75.5487 2.5V0.5ZM74.5338 2.5L74.5331 2.49938L75.5494 0.776883C75.2509 0.600766 74.9026 0.5 74.5338 0.5V2.5Z" fill="white"/>
<path d="M82.0489 203C82.0489 199.8 85.7155 197 87.5489 196H99.0488C100.549 196 119.549 202 124.049 203C128.549 204 128.049 208 126.549 208.5C125.049 209 86.5489 208.5 84.0489 208.5C82.0489 208.5 81.8822 204.833 82.0489 203Z" fill="white" stroke="white" stroke-width="2" stroke-linecap="round"/>
<path d="M68.0342 203C68.0342 199.8 64.3675 197 62.5342 196H51.0342C49.5342 196 30.5342 202 26.0342 203C21.5342 204 22.0342 208 23.5342 208.5C25.0342 209 63.5342 208.5 66.0342 208.5C68.0342 208.5 68.2008 204.833 68.0342 203Z" fill="white" stroke="white" stroke-width="2" stroke-linecap="round"/>
</svg>
