<svg width="184" height="221" viewBox="0 0 184 221" fill="none" xmlns="http://www.w3.org/2000/svg">
<path d="M59.058 116.539L102.759 65.0552C105.154 67.4498 109.045 74.9328 113.535 85.1098C118.025 95.2868 127.004 116.539 128.202 118.634C129.16 120.31 130.596 119.332 131.195 118.634C138.858 109.774 154.742 106.561 161.726 106.062L163.222 112.648C159.331 115.341 137.181 135.097 127.603 142.879C119.94 149.105 114.233 143.079 112.338 139.287L96.4734 112.648C87.8529 125.099 69.1353 132.602 60.854 134.797C60.6544 136.593 58.5791 142.46 51.8743 151.56C45.1695 160.659 30.9217 166.725 24.6359 168.621L18.0508 162.634C21.044 160.539 43.7926 134.797 46.4865 130.906C48.6416 127.793 55.7655 120.031 59.058 116.539Z" stroke="white" stroke-width="2"/>
<path d="M73.1847 99.5537C77.1919 94.6406 93.4524 75.7984 102.131 65.781C102.485 65.3729 103.082 65.324 103.431 65.7359C107.702 70.7781 117.736 93.7495 122.627 105.607C122.748 105.899 122.722 106.219 122.549 106.484C120.055 110.3 110.948 120.95 105.79 126.847C105.334 127.368 104.502 127.275 104.167 126.67L97.8066 115.171C97.4591 114.543 96.5786 114.472 96.0933 115.001C95.0455 116.143 93.9819 117.034 93.2371 117.584C92.8626 117.861 92.35 117.803 92.0223 117.472C90.4974 115.932 87.7102 113.073 85.3992 110.552C82.9825 107.916 76.8535 103.398 73.3927 100.975C72.923 100.646 72.8224 99.998 73.1847 99.5537Z" fill="#6521D3" stroke="white" stroke-width="2"/>
<path d="M168.012 106.96C166.576 105.045 163.223 105.563 161.727 106.062L163.223 112.647C164.321 116.339 166.635 124.082 167.114 125.518C167.713 127.314 168.91 130.307 170.108 129.709C171.065 129.23 171.105 127.314 171.006 126.416C170.606 120.729 169.449 108.876 168.012 106.96Z" fill="white" stroke="white" stroke-width="2"/>
<path d="M3.98298 152.158L18.9491 162.635L24.6363 168.322C24.4367 169.02 23.5587 170.776 21.643 172.213C19.7274 173.65 17.4525 171.614 16.5545 170.417C12.364 165.827 3.68365 156.349 2.48636 155.152C0.989747 153.655 0.690424 153.056 1.28907 152.158C1.76799 151.44 3.28456 151.859 3.98298 152.158Z" fill="white" stroke="white" stroke-width="2"/>
<path d="M52.7722 150.362C50.4774 147.967 44.8103 142.22 40.5 138.389" stroke="white" stroke-width="2"/>
<path d="M49.7791 154.254C47.4843 151.859 41.8171 146.112 37.5068 142.281" stroke="white" stroke-width="2"/>
<path d="M139.277 112.348C140.974 116.14 144.725 124.441 146.162 127.314" stroke="white" stroke-width="2"/>
<path d="M135.087 115.341C136.783 119.133 140.535 127.434 141.971 130.307" stroke="white" stroke-width="2"/>
<path d="M70.7211 163.832L114.422 112.348C116.817 114.743 120.708 122.226 125.198 132.403C129.688 142.58 138.667 163.832 139.865 165.927C140.823 167.603 142.259 166.625 142.858 165.927C150.521 157.067 166.405 153.854 173.389 153.355L174.886 159.941C170.994 162.634 148.844 182.39 139.266 190.172C131.603 196.398 125.896 190.372 124.001 186.58L108.137 159.941C99.516 172.392 80.7983 179.895 72.5171 182.09C72.3175 183.886 70.2422 189.753 63.5374 198.853C56.8325 207.952 42.5848 214.018 36.299 215.914L29.7139 209.927C32.7071 207.832 55.4557 182.09 58.1496 178.199C60.3047 175.086 67.4286 167.324 70.7211 163.832Z" stroke="white" stroke-width="2"/>
<path d="M84.8478 146.847C88.855 141.934 105.116 123.091 113.794 113.074C114.148 112.666 114.745 112.617 115.094 113.029C119.365 118.071 129.399 141.042 134.29 152.9C134.411 153.192 134.385 153.512 134.213 153.777C131.718 157.593 122.611 168.243 117.453 174.14C116.998 174.661 116.166 174.568 115.831 173.963L109.47 162.464C109.122 161.836 108.242 161.765 107.756 162.294C106.709 163.436 105.645 164.327 104.9 164.877C104.526 165.154 104.013 165.096 103.685 164.765C102.16 163.225 99.3733 160.366 97.0623 157.845C94.6456 155.209 88.5166 150.691 85.0557 148.268C84.5861 147.939 84.4855 147.291 84.8478 146.847Z" fill="white" stroke="white" stroke-width="2"/>
<path d="M179.675 154.253C178.239 152.338 174.886 152.856 173.39 153.355L174.886 159.94C175.984 163.632 178.299 171.375 178.777 172.811C179.376 174.607 180.573 177.6 181.771 177.002C182.729 176.523 182.768 174.607 182.669 173.709C182.27 168.022 181.112 156.169 179.675 154.253Z" fill="white" stroke="white" stroke-width="2"/>
<path d="M15.6461 199.451L30.6122 209.928L36.2993 215.615C36.0998 216.313 35.2218 218.069 33.3061 219.506C31.3904 220.943 29.1156 218.907 28.2176 217.71C24.0271 213.12 15.3467 203.642 14.1494 202.445C12.6528 200.948 12.3535 200.349 12.9522 199.451C13.4311 198.733 14.9476 199.152 15.6461 199.451Z" fill="white" stroke="white" stroke-width="2"/>
<path fill-rule="evenodd" clip-rule="evenodd" d="M64.4188 197.638C64.1343 198.036 63.8406 198.441 63.5374 198.852C56.8325 207.952 42.5848 214.018 36.299 215.914L29.7139 209.927C31.8631 208.423 44.1979 194.727 51.9801 185.682H52.1631C56.463 189.504 62.1134 195.233 64.4188 197.638Z" fill="white"/>
<path d="M64.4188 197.638L65.2325 198.219L65.7146 197.544L65.1407 196.946L64.4188 197.638ZM63.5374 198.852L64.3424 199.446V199.446L63.5374 198.852ZM36.299 215.914L35.6263 216.654L36.0454 217.035L36.5877 216.871L36.299 215.914ZM29.7139 209.927L29.1404 209.108L28.1154 209.826L29.0412 210.667L29.7139 209.927ZM51.9801 185.682V184.682H51.5213L51.2221 185.03L51.9801 185.682ZM52.1631 185.682L52.8275 184.935L52.5433 184.682H52.1631V185.682ZM63.6052 197.056C63.3235 197.451 63.0326 197.852 62.7323 198.259L64.3424 199.446C64.6485 199.03 64.9451 198.621 65.2325 198.219L63.6052 197.056ZM62.7323 198.259C59.5026 202.642 54.4066 206.35 49.2741 209.211C44.1543 212.065 39.0877 214.028 36.0102 214.956L36.5877 216.871C39.796 215.904 44.9963 213.886 50.248 210.958C55.487 208.037 60.8673 204.162 64.3424 199.446L62.7323 198.259ZM36.9716 215.174L30.3865 209.187L29.0412 210.667L35.6263 216.654L36.9716 215.174ZM30.2873 210.747C30.9219 210.302 32.1708 209.08 33.7248 207.471C35.3143 205.824 37.308 203.681 39.4735 201.306C43.8052 196.556 48.8409 190.864 52.7381 186.334L51.2221 185.03C47.3371 189.545 42.3142 195.223 37.9957 199.958C35.8361 202.327 33.8567 204.454 32.2859 206.082C30.6794 207.746 29.5805 208.8 29.1404 209.108L30.2873 210.747ZM51.9801 186.682H52.1631V184.682H51.9801V186.682ZM51.4987 186.43C55.7682 190.225 61.3965 195.93 63.6969 198.33L65.1407 196.946C62.8303 194.536 57.1579 188.784 52.8275 184.935L51.4987 186.43Z" fill="white"/>
<path fill-rule="evenodd" clip-rule="evenodd" d="M146.837 162.287C155.12 156.158 167.461 153.779 173.39 153.355L174.886 159.941C172.803 161.383 165.486 167.715 157.667 174.483C156.439 175.546 155.198 176.62 153.962 177.688L153.634 177.601C152.198 174.727 148.446 166.426 146.75 162.634L146.837 162.287Z" fill="white"/>
<path d="M146.837 162.287L146.243 161.483L145.955 161.696L145.868 162.043L146.837 162.287ZM173.39 153.355L174.365 153.134L174.175 152.297L173.319 152.358L173.39 153.355ZM174.886 159.941L175.456 160.763L176.011 160.378L175.861 159.719L174.886 159.941ZM157.667 174.483L158.322 175.239L157.667 174.483ZM153.962 177.688L153.705 178.654L154.216 178.79L154.616 178.444L153.962 177.688ZM153.634 177.601L152.74 178.048L152.942 178.451L153.377 178.567L153.634 177.601ZM146.75 162.634L145.78 162.391L145.696 162.727L145.837 163.043L146.75 162.634ZM147.432 163.091C155.492 157.126 167.611 154.771 173.461 154.353L173.319 152.358C167.311 152.787 154.747 155.19 146.243 161.483L147.432 163.091ZM172.415 153.577L173.911 160.162L175.861 159.719L174.365 153.134L172.415 153.577ZM174.317 159.118C173.225 159.875 170.83 161.858 167.78 164.453C164.709 167.066 160.921 170.344 157.013 173.727L158.322 175.239C162.232 171.854 166.013 168.582 169.076 165.976C172.159 163.353 174.465 161.449 175.456 160.763L174.317 159.118ZM157.013 173.727C155.784 174.79 154.543 175.864 153.308 176.931L154.616 178.444C155.852 177.377 157.093 176.302 158.322 175.239L157.013 173.727ZM154.219 176.722L153.892 176.634L153.377 178.567L153.705 178.654L154.219 176.722ZM154.529 177.153C153.104 174.304 149.363 166.026 147.663 162.226L145.837 163.043C147.53 166.826 151.291 175.151 152.74 178.048L154.529 177.153ZM147.72 162.878L147.807 162.531L145.868 162.043L145.78 162.391L147.72 162.878Z" fill="white"/>
<path d="M44.3916 12.3742L48.2828 3.69385" stroke="white" stroke-width="2" stroke-linecap="round"/>
<circle cx="32.1194" cy="34.5242" r="11.5716" fill="white" stroke="white" stroke-width="2"/>
<path d="M24.6367 1L27.0313 8.7824" stroke="white" stroke-width="2" stroke-linecap="round"/>
<path d="M4.58203 15.9663L12.6638 20.7555" stroke="white" stroke-width="2" stroke-linecap="round"/>
<path d="M1.28906 45.0006L9.96943 42.0073" stroke="white" stroke-width="2" stroke-linecap="round"/>
<path d="M21.044 56.0757L16.8535 65.3547" stroke="white" stroke-width="2" stroke-linecap="round"/>
<path d="M37.208 56.6743L39.3033 65.3547" stroke="white" stroke-width="2" stroke-linecap="round"/>
<path d="M52.4736 45.0005L62.6506 50.6876" stroke="white" stroke-width="2" stroke-linecap="round"/>
<path d="M54.2695 25.8438L61.4533 23.7485" stroke="white" stroke-width="2" stroke-linecap="round"/>
</svg>
