<svg width="184" height="211" viewBox="0 0 180 211" fill="none" xmlns="http://www.w3.org/2000/svg">
<path d="M57.6 110.97L100.203 61.9678C102.538 64.247 106.331 71.3694 110.708 81.0559C115.085 90.7425 123.839 110.97 125.006 112.964C125.94 114.56 127.341 113.629 127.924 112.964C135.394 104.532 150.879 101.474 157.688 100.999L159.147 107.267C155.354 109.831 133.76 128.634 124.423 136.041C116.953 141.967 111.389 136.231 109.541 132.622L94.0753 107.267C85.6714 119.118 67.424 126.26 59.3508 128.349C59.1562 130.058 57.1331 135.642 50.5967 144.303C44.0603 152.964 30.1705 158.738 24.0427 160.542L17.623 154.844C20.5411 152.85 42.7181 128.349 45.3443 124.645C47.4452 121.682 54.3901 114.294 57.6 110.97Z" fill="white" stroke="#A16EE4" stroke-width="2"/>
<path d="M71.4094 94.757C75.3798 90.011 91.1446 72.1756 99.5796 62.6696C99.9319 62.2726 100.518 62.2246 100.865 62.626C105.031 67.4417 114.787 89.2466 119.557 100.534C119.683 100.831 119.657 101.158 119.477 101.426C117.023 105.077 108.19 115.163 103.171 120.765C102.715 121.274 101.897 121.183 101.561 120.589L95.3881 109.694C95.0389 109.078 94.1734 109.008 93.6876 109.524C92.6741 110.599 91.6471 111.439 90.9251 111.961C90.5545 112.229 90.0523 112.171 89.7267 111.85C88.2384 110.383 85.5269 107.668 83.278 105.272C80.9334 102.775 75.0045 98.5043 71.6221 96.1903C71.1415 95.8615 71.0358 95.2036 71.4094 94.757Z" fill="#A16EE4" stroke="#A16EE4" stroke-width="2"/>
<path d="M163.815 101.853C162.415 100.03 159.147 100.524 157.688 100.999L159.147 107.266C160.216 110.78 162.473 118.149 162.94 119.517C163.524 121.226 164.691 124.075 165.858 123.505C166.792 123.05 166.831 121.226 166.733 120.372C166.344 114.959 165.216 103.677 163.815 101.853Z" fill="#A16EE4" stroke="#A16EE4" stroke-width="2"/>
<path d="M3.90803 144.873L18.4981 154.844L24.0424 160.257C23.8478 160.922 22.9919 162.593 21.1244 163.961C19.2568 165.328 17.0391 163.391 16.1637 162.251C12.0785 157.883 3.61623 148.861 2.44902 147.722C0.990004 146.297 0.698202 145.727 1.28181 144.873C1.74869 144.189 3.22716 144.588 3.90803 144.873Z" fill="#A16EE4" stroke="#A16EE4" stroke-width="2"/>
<path d="M51.4717 143.163C49.2346 140.884 43.7098 135.414 39.5078 131.768" stroke="#A16EE4" stroke-width="2"/>
<path d="M48.5537 146.868C46.3166 144.588 40.7918 139.118 36.5898 135.472" stroke="#A16EE4" stroke-width="2"/>
<path d="M135.803 106.981C137.456 110.59 141.114 118.491 142.514 121.226" stroke="#A16EE4" stroke-width="2"/>
<path d="M131.717 109.831C133.371 113.439 137.028 121.34 138.429 124.075" stroke="#A16EE4" stroke-width="2"/>
<path d="M68.9696 155.984L111.573 106.981C113.907 109.261 117.701 116.383 122.078 126.07C126.455 135.756 135.209 155.984 136.376 157.978C137.31 159.574 138.71 158.643 139.294 157.978C146.764 149.545 162.249 146.487 169.058 146.012L170.517 152.28C166.723 154.844 145.13 173.648 135.792 181.055C128.322 186.981 122.759 181.245 120.91 177.636L105.445 152.28C97.041 164.132 78.7936 171.273 70.7204 173.363C70.5259 175.072 68.5027 180.656 61.9663 189.317C55.43 197.978 41.5402 203.752 35.4123 205.556L28.9927 199.858C31.9107 197.864 54.0877 173.363 56.7139 169.659C58.8149 166.696 65.7598 159.308 68.9696 155.984Z" fill="white" stroke="#A16EE4" stroke-width="2"/>
<path d="M82.7795 139.771C86.75 135.025 102.515 117.189 110.95 107.683C111.302 107.286 111.888 107.238 112.235 107.64C116.401 112.455 126.157 134.26 130.927 145.548C131.053 145.845 131.027 146.172 130.847 146.44C128.393 150.091 119.56 160.176 114.541 165.779C114.086 166.288 113.268 166.196 112.931 165.602L106.758 154.708C106.409 154.092 105.543 154.022 105.058 154.537C104.044 155.613 103.017 156.453 102.295 156.975C101.925 157.242 101.422 157.185 101.097 156.864C99.6086 155.397 96.897 152.681 94.6481 150.286C92.3035 147.789 86.3746 143.518 82.9922 141.204C82.5116 140.875 82.4059 140.217 82.7795 139.771Z" fill="white" stroke="#A16EE4" stroke-width="2"/>
<path d="M175.185 146.867C173.785 145.044 170.517 145.537 169.058 146.012L170.517 152.28C171.587 155.794 173.843 163.163 174.31 164.531C174.894 166.24 176.061 169.089 177.228 168.519C178.162 168.063 178.201 166.24 178.103 165.385C177.714 159.972 176.586 148.69 175.185 146.867Z" fill="#A16EE4" stroke="#A16EE4" stroke-width="2"/>
<path d="M15.2781 189.886L29.8683 199.858L35.4125 205.271C35.218 205.936 34.362 207.607 32.4945 208.974C30.6269 210.342 28.4092 208.405 27.5338 207.265C23.4486 202.897 14.9863 193.875 13.8191 192.735C12.3601 191.311 12.0683 190.741 12.6519 189.886C13.1188 189.203 14.5973 189.601 15.2781 189.886Z" fill="#A16EE4" stroke="#A16EE4" stroke-width="2"/>
<path fill-rule="evenodd" clip-rule="evenodd" d="M62.8258 188.161C62.5484 188.54 62.262 188.925 61.9663 189.317C55.43 197.978 41.5402 203.752 35.4123 205.556L28.9927 199.858C31.0879 198.426 43.1129 185.39 50.6996 176.781H50.878C55.0699 180.419 60.5783 185.872 62.8258 188.161Z" fill="#A16EE4"/>
<path d="M62.8258 188.161L63.6327 188.751L64.1343 188.066L63.5393 187.46L62.8258 188.161ZM61.9663 189.317L62.7645 189.919L62.7645 189.919L61.9663 189.317ZM35.4123 205.556L34.7485 206.304L35.1631 206.672L35.6948 206.515L35.4123 205.556ZM28.9927 199.858L28.4284 199.033L27.3706 199.756L28.3289 200.606L28.9927 199.858ZM50.6996 176.781V175.781H50.248L49.9494 176.12L50.6996 176.781ZM50.878 176.781L51.5334 176.026L51.2514 175.781H50.878V176.781ZM62.0188 187.57C61.7443 187.945 61.4608 188.327 61.1681 188.715L62.7645 189.919C63.0631 189.524 63.3524 189.134 63.6327 188.751L62.0188 187.57ZM61.1681 188.715C58.0248 192.88 53.0616 196.406 48.0581 199.129C43.068 201.845 38.1296 203.714 35.1299 204.597L35.6948 206.515C38.8229 205.594 43.8933 203.673 49.0142 200.886C54.1216 198.106 59.3715 194.415 62.7645 189.919L61.1681 188.715ZM36.0761 204.808L29.6565 199.11L28.3289 200.606L34.7485 206.304L36.0761 204.808ZM29.5569 200.684C30.1783 200.259 31.3982 199.093 32.9125 197.562C34.4625 195.994 36.4064 193.954 38.5176 191.694C42.7408 187.172 47.6502 181.754 51.4498 177.442L49.9494 176.12C46.1623 180.417 41.2658 185.821 37.0561 190.328C34.9508 192.582 33.0214 194.607 31.4904 196.156C29.9236 197.74 28.8547 198.741 28.4284 199.033L29.5569 200.684ZM50.6996 177.781H50.878V175.781H50.6996V177.781ZM50.2225 177.536C54.3837 181.148 59.8698 186.578 62.1122 188.861L63.5393 187.46C61.2868 185.166 55.7561 179.691 51.5334 176.026L50.2225 177.536Z" fill="#A16EE4"/>
<path fill-rule="evenodd" clip-rule="evenodd" d="M143.173 154.513C151.247 148.68 163.278 146.416 169.057 146.013L170.517 152.28C168.486 153.653 161.353 159.681 153.73 166.122C152.532 167.134 151.323 168.156 150.119 169.172L149.799 169.089C148.398 166.354 144.741 158.453 143.087 154.844L143.173 154.513Z" fill="#A16EE4"/>
<path d="M143.173 154.513L142.587 153.703L142.294 153.914L142.204 154.264L143.173 154.513ZM169.057 146.013L170.031 145.786L169.838 144.956L168.988 145.015L169.057 146.013ZM170.517 152.28L171.077 153.109L171.646 152.724L171.49 152.054L170.517 152.28ZM153.73 166.122L154.376 166.886L153.73 166.122ZM150.119 169.172L149.867 170.14L150.368 170.27L150.764 169.936L150.119 169.172ZM149.799 169.089L148.909 169.545L149.113 169.944L149.547 170.057L149.799 169.089ZM143.087 154.844L142.119 154.595L142.031 154.938L142.178 155.261L143.087 154.844ZM143.758 155.324C151.611 149.65 163.423 147.408 169.127 147.01L168.988 145.015C163.133 145.423 150.882 147.71 142.587 153.703L143.758 155.324ZM168.084 146.239L169.543 152.507L171.49 152.054L170.031 145.786L168.084 146.239ZM169.957 151.452C167.867 152.864 160.669 158.949 153.085 165.358L154.376 166.886C162.036 160.412 169.104 154.442 171.077 153.109L169.957 151.452ZM153.085 165.358C151.887 166.37 150.677 167.392 149.474 168.408L150.764 169.936C151.968 168.92 153.178 167.898 154.376 166.886L153.085 165.358ZM150.37 168.204L150.05 168.121L149.547 170.057L149.867 170.14L150.37 168.204ZM150.689 168.633C149.301 165.922 145.654 158.045 143.997 154.428L142.178 155.261C143.828 158.861 147.496 166.786 148.909 169.545L150.689 168.633ZM144.056 155.094L144.141 154.763L142.204 154.264L142.119 154.595L144.056 155.094Z" fill="#A16EE4"/>
<path d="M43.3013 11.8265L47.0947 3.56445" stroke="#A16EE4" stroke-width="2" stroke-linecap="round"/>
<path d="M42.5934 32.9081C42.5934 38.9418 37.5768 43.8738 31.3377 43.8738C25.0987 43.8738 20.082 38.9418 20.082 32.9081C20.082 26.8743 25.0987 21.9424 31.3377 21.9424C37.5768 21.9424 42.5934 26.8743 42.5934 32.9081Z" fill="#A16EE4" stroke="#A16EE4" stroke-width="2"/>
<path d="M24.0425 1L26.3769 8.40734" stroke="#A16EE4" stroke-width="2" stroke-linecap="round"/>
<path d="M4.4917 15.2446L12.3704 19.803" stroke="#A16EE4" stroke-width="2" stroke-linecap="round"/>
<path d="M1.28174 42.8797L9.74401 40.0308" stroke="#A16EE4" stroke-width="2" stroke-linecap="round"/>
<path d="M20.5408 53.4209L16.4556 62.2527" stroke="#A16EE4" stroke-width="2" stroke-linecap="round"/>
<path d="M36.2983 53.9907L38.341 62.2528" stroke="#A16EE4" stroke-width="2" stroke-linecap="round"/>
<path d="M51.1797 42.8804L61.101 48.2934" stroke="#A16EE4" stroke-width="2" stroke-linecap="round"/>
<path d="M52.9307 24.6471L59.9339 22.6528" stroke="#A16EE4" stroke-width="2" stroke-linecap="round"/>
</svg>
