<svg width="190" height="45" viewBox="0 0 190 45" fill="none" xmlns="http://www.w3.org/2000/svg">
<path d="M5.18418 44.1C4.88418 44.1 4.63418 44 4.43418 43.8C4.23418 43.6 4.13418 43.3333 4.13418 43V33.75H36.6342V30.4H4.13418V27.35H39.9342V36.8H7.43418V41.1H40.3342V44.1H5.18418ZM40.5342 4.95H7.28418V14.2H40.5342V17.2H5.08418C4.78418 17.2 4.51751 17.1 4.28418 16.9C4.08418 16.6667 3.98418 16.4 3.98418 16.1V1.85L40.5342 1.9V4.95ZM0.83418 23.9V20.85H43.6842V23.9H0.83418ZM83.8068 41.1V31.1H54.6068V41.1H83.8068ZM81.3568 3.4L86.2568 16.45H82.7068L78.4568 5.15H59.7568L55.5068 16.45H52.2568L57.7568 1.85H79.1568C79.6568 1.88333 80.0902 2.03333 80.4568 2.3C80.8568 2.56667 81.1568 2.93333 81.3568 3.4ZM47.8068 22.1V19.05H90.6568V22.1H70.8568V28.05H86.0068C86.3068 28.05 86.5568 28.1667 86.7568 28.4C86.9902 28.6 87.1068 28.85 87.1068 29.15V44.1H52.4068C52.1068 44.1 51.8402 44 51.6068 43.8C51.4068 43.6 51.3068 43.3333 51.3068 43V28.05H67.5568V22.1H47.8068ZM101.479 44.15C101.179 44.15 100.913 44.05 100.679 43.85C100.479 43.65 100.379 43.4 100.379 43.1V33.8H132.929V30.45H100.379V27.45H136.229V36.85H103.679V41.15H136.629V44.15H101.479ZM101.579 1.95V20.6H124.879V23.65H99.3795C99.0795 23.65 98.8128 23.55 98.5795 23.35C98.3795 23.1167 98.2795 22.85 98.2795 22.55V1.95H101.579ZM136.229 0.649999V11.15H143.479V14.15H136.229V24.6H132.929V0.649999H136.229ZM182.293 41.1V31.1H153.093V41.1H182.293ZM179.843 3.4L184.743 16.45H181.193L176.943 5.15H158.243L153.993 16.45H150.743L156.243 1.85H177.643C178.143 1.88333 178.576 2.03333 178.943 2.3C179.343 2.56667 179.643 2.93333 179.843 3.4ZM146.293 22.1V19.05H189.143V22.1H169.343V28.05H184.493C184.793 28.05 185.043 28.1667 185.243 28.4C185.476 28.6 185.593 28.85 185.593 29.15V44.1H150.893C150.593 44.1 150.326 44 150.093 43.8C149.893 43.6 149.793 43.3333 149.793 43V28.05H166.043V22.1H146.293Z" fill="#ffffff"/>
</svg>
