<svg width="70" height="70" viewBox="0 0 70 70" fill="none" xmlns="http://www.w3.org/2000/svg">
<path d="M70 42.0083V42.2144C66.2334 58.5913 52.0078 69.9379 35.3486 69.9998C24.284 70.041 13.81 64.6919 7.22012 55.9367C2.60632 49.8067 0.199609 42.8226 0 34.9843V34.0568C0.0355469 33.4861 0.0669922 32.915 0.0943359 32.3434C0.829883 17.2663 11.3053 4.51539 25.509 0.257308C26.1543 0.0631133 26.6506 -0.0211599 26.9979 0.00448846C28.5141 0.113036 29.5436 1.65743 28.9789 3.1084C28.8987 3.31358 28.7059 3.61495 28.4006 4.0125C23.7877 10.0087 21.901 17.8557 23.4486 25.3771C27.3451 44.3097 49.1449 52.9042 64.7527 41.46C65.7809 40.7057 66.7939 39.6078 68.209 39.8854C69.2781 40.0952 69.8751 40.8028 70 42.0083Z" fill="#E8E8E8"/>
</svg>
