<svg width="70" height="70" viewBox="0 0 70 70" fill="none" xmlns="http://www.w3.org/2000/svg">
<g clip-path="url(#clip0_1231_3373)">
<path d="M34.9061 0H35.1453C36.7805 0.255664 37.3984 1.32891 37.3957 2.85332C37.3911 4.85579 37.3911 6.85963 37.3957 8.86484C37.3975 9.57031 37.3387 10.0803 37.2193 10.3947C36.4305 12.4619 33.5307 12.4018 32.7541 10.3469C32.6584 10.0926 32.6101 9.72207 32.6092 9.23535C32.6074 7.11348 32.6064 4.9916 32.6064 2.86973C32.6078 1.31797 33.2189 0.226953 34.9061 0Z" fill="#E8E8E8"/>
<path d="M18.6384 15.4038L13.4747 10.2581C12.581 9.3675 11.1345 9.37002 10.2438 10.2638L10.1493 10.3587C9.25863 11.2524 9.26116 12.6989 10.1549 13.5895L15.3186 18.7352C16.2123 19.6258 17.6588 19.6233 18.5494 18.7296L18.644 18.6347C19.5346 17.7409 19.5321 16.2944 18.6384 15.4038Z" fill="#E8E8E8"/>
<path d="M56.533 10.2594L51.3584 15.398C50.4636 16.2865 50.4586 17.7322 51.3471 18.6269L51.4415 18.722C52.33 19.6168 53.7757 19.6218 54.6704 18.7333L59.845 13.5947C60.7398 12.7061 60.7448 11.2605 59.8563 10.3658L59.7619 10.2707C58.8734 9.37593 57.4277 9.37088 56.533 10.2594Z" fill="#E8E8E8"/>
<path d="M48.5639 46.1002C39.118 57.6611 20.7252 52.839 17.7639 38.3906C16.3926 31.7078 19.2691 24.6832 24.7967 20.7252C32.3189 15.3357 42.6221 16.7234 48.5351 23.8232C53.9109 30.2777 53.8986 39.5718 48.5639 46.1002Z" fill="#E8E8E8"/>
<path d="M0 35.0947V34.8897C0.233789 33.2326 1.31523 32.6037 2.85195 32.6065C4.91003 32.6092 6.96855 32.6092 9.02754 32.6065C9.65462 32.6065 10.1222 32.6693 10.4303 32.7951C12.4605 33.625 12.3936 36.466 10.3551 37.244C10.0971 37.3424 9.72116 37.3916 9.22715 37.3916C7.10345 37.3925 4.9793 37.3939 2.85469 37.3957C1.3084 37.3971 0.229687 36.76 0 35.0947Z" fill="#E8E8E8"/>
<path d="M70.0003 34.9061V35.1111C69.7678 36.7682 68.685 37.3971 67.1483 37.3957C65.1039 37.393 63.059 37.3921 61.0137 37.393C60.3347 37.393 59.8407 37.3278 59.5317 37.1975C57.6135 36.3895 57.5985 33.6059 59.5276 32.802C59.8357 32.6734 60.3156 32.6092 60.9672 32.6092C63.0217 32.6083 65.0761 32.6074 67.1305 32.6064C68.6823 32.6064 69.7733 33.2189 70.0003 34.9061Z" fill="#E8E8E8"/>
<path d="M13.5613 59.6654C11.5912 61.6273 8.45354 59.2744 9.80569 56.901C9.92326 56.6941 10.1976 56.3741 10.6287 55.9412C12.9311 53.6261 14.4446 52.1122 15.1692 51.3994C17.5412 49.067 20.8252 52.3769 18.5133 54.708C16.8672 56.3668 15.2166 58.0193 13.5613 59.6654Z" fill="#E8E8E8"/>
<path d="M51.3557 51.2625L51.2629 51.3553C50.3707 52.2474 50.3707 53.694 51.2629 54.5861L56.4215 59.7447C57.3136 60.6369 58.7602 60.6369 59.6523 59.7447L59.7451 59.6519C60.6373 58.7597 60.6373 57.3132 59.7451 56.421L54.5866 51.2625C53.6944 50.3703 52.2479 50.3703 51.3557 51.2625Z" fill="#E8E8E8"/>
<path d="M35.0942 70.0001H34.8891C33.2334 69.7676 32.6032 68.6835 32.6059 67.1467C32.6095 65.1424 32.6091 63.1377 32.6045 61.1325C32.6027 60.4297 32.661 59.9225 32.7795 59.6108C33.5684 57.5258 36.5133 57.5997 37.2584 59.6887C37.3459 59.9348 37.3901 60.303 37.3911 60.7934C37.392 62.908 37.3929 65.0226 37.3938 67.1372C37.3952 68.6862 36.7676 69.7704 35.0942 70.0001Z" fill="#E8E8E8"/>
</g>
<defs>
<clipPath id="clip0_1231_3373">
<rect width="70" height="70" fill="white"/>
</clipPath>
</defs>
</svg>
