<svg xmlns="http://www.w3.org/2000/svg" xmlns:xlink="http://www.w3.org/1999/xlink"><symbol id="ellipse-6" viewBox="0 0 36 36"><circle cx="18" cy="18" r="17.75" fill="url(#pattern0)" stroke="#DBDBDB" stroke-width=".5"/><defs><pattern id="pattern0" width="1" height="1" patternContentUnits="objectBoundingBox"><use transform="scale(.00147)" xlink:href="#image0_7088_4266"/></pattern></defs></symbol><symbol id="ellipse-4" viewBox="0 0 110 110"><circle cx="55" cy="55" r="54.5" fill="url(#pattern0)" stroke="#DBDBDB"/><defs><pattern id="pattern0" width="1" height="1" patternContentUnits="objectBoundingBox"><use transform="scale(.00147)" xlink:href="#image0_7088_4190"/></pattern></defs></symbol><symbol id="google-g-logo-1" viewBox="0 0 24 24"><path fill="#4285F4" d="M21 12.207c0-.606-.054-1.18-.146-1.74h-8.659v3.456h4.958c-.222 1.134-.873 2.092-1.839 2.744v2.298h2.958C20.004 17.364 21 15.004 21 12.207z"/><path fill="#34A853" d="M12.195 21.195c2.483 0 4.56-.827 6.077-2.23l-2.958-2.298c-.827.551-1.877.889-3.119.889-2.398 0-4.429-1.617-5.157-3.801h-3.05v2.368c1.51 3.003 4.614 5.072 8.207 5.072z"/><path fill="#FBBC05" d="M7.038 13.755A5.336 5.336 0 0 1 6.748 12c0-.613.106-1.203.29-1.755V7.877h-3.05a9.089 9.089 0 0 0 0 8.246l3.05-2.368z"/><path fill="#EA4335" d="M12.195 6.444c1.357 0 2.567.468 3.525 1.38l2.621-2.62c-1.586-1.488-3.663-2.4-6.146-2.4-3.593 0-6.697 2.07-8.206 5.073l3.05 2.368c.727-2.184 2.758-3.8 5.156-3.8z"/></symbol><symbol id="facebook" viewBox="0 0 24 24"><path fill="#2D9CDB" d="M17 2h-3a5 5 0 0 0-5 5v3H6v4h3v8h4v-8h3l1-4h-4V7a1 1 0 0 1 1-1h3V2z"/></symbol><symbol id="icon-more-vertical" viewBox="0 0 24 24"><path fill="#767676" stroke="#767676" stroke-linecap="round" stroke-linejoin="round" d="M12 13a1 1 0 1 0 0-2 1 1 0 0 0 0 2zm0-7a1 1 0 1 0 0-2 1 1 0 0 0 0 2zm0 14a1 1 0 1 0 0-2 1 1 0 0 0 0 2z"/></symbol><symbol id="iccon-img-layers" viewBox="0 0 20 20"><path stroke="#fff" stroke-linecap="round" stroke-linejoin="round" d="M14.815 13.333c.562 0 1.018-.456 1.018-1.018v-7.13c0-.562-.456-1.018-1.018-1.018h-7.13c-.562 0-1.018.456-1.018 1.018" filter="url(#a)"/><g filter="url(#b)"><path fill="#fff" d="M12.315 6.667h-7.13c-.562 0-1.018.456-1.018 1.018v7.13c0 .562.456 1.018 1.018 1.018h7.13c.562 0 1.018-.456 1.018-1.018v-7.13c0-.562-.456-1.018-1.018-1.018z"/><path stroke="#fff" stroke-linecap="round" stroke-linejoin="round" d="M12.315 6.667h-7.13c-.562 0-1.018.456-1.018 1.018v7.13c0 .562.456 1.018 1.018 1.018h7.13c.562 0 1.018-.456 1.018-1.018v-7.13c0-.562-.456-1.018-1.018-1.018z"/></g><defs><filter id="a" width="14.17" height="14.17" x="4.17" y="1.67" color-interpolation-filters="sRGB" filterUnits="userSpaceOnUse"><feFlood flood-opacity="0" result="BackgroundImageFix"/><feColorMatrix in="SourceAlpha" result="hardAlpha" values="0 0 0 0 0 0 0 0 0 0 0 0 0 0 0 0 0 0 127 0"/><feOffset/><feGaussianBlur stdDeviation="1"/><feComposite in2="hardAlpha" operator="out"/><feColorMatrix values="0 0 0 0 0 0 0 0 0 0 0 0 0 0 0 0 0 0 0.5 0"/><feBlend in2="BackgroundImageFix" result="effect1_dropShadow_11786_4287"/><feBlend in="SourceGraphic" in2="effect1_dropShadow_11786_4287" result="shape"/></filter><filter id="b" width="14.17" height="14.17" x="1.67" y="4.17" color-interpolation-filters="sRGB" filterUnits="userSpaceOnUse"><feFlood flood-opacity="0" result="BackgroundImageFix"/><feColorMatrix in="SourceAlpha" result="hardAlpha" values="0 0 0 0 0 0 0 0 0 0 0 0 0 0 0 0 0 0 127 0"/><feOffset/><feGaussianBlur stdDeviation="1"/><feComposite in2="hardAlpha" operator="out"/><feColorMatrix values="0 0 0 0 0 0 0 0 0 0 0 0 0 0 0 0 0 0 0.5 0"/><feBlend in2="BackgroundImageFix" result="effect1_dropShadow_11786_4287"/><feBlend in="SourceGraphic" in2="effect1_dropShadow_11786_4287" result="shape"/></filter></defs></symbol><symbol id="icon-arrow-left" viewBox="0 0 22 22"><path stroke="#000" stroke-linecap="round" stroke-linejoin="round" stroke-width="2" d="M17.417 11H4.583M11 17.417L4.583 11 11 4.583"/></symbol><symbol id="icon-edit" viewBox="0 0 24 24"><rect width="18" height="18" x="3" y="3" stroke="#767676" stroke-width="2" rx="3"/><path stroke="#767676" stroke-linecap="round" stroke-width="2" d="M12 8v8m-4-4h8"/></symbol><symbol id="icon-message-circle" viewBox="0 0 20 20"><path stroke="#767676" stroke-linecap="round" stroke-linejoin="round" stroke-width="1.5" d="M17.5 9.583a6.983 6.983 0 0 1-.75 3.167 7.084 7.084 0 0 1-6.333 3.917 6.983 6.983 0 0 1-3.167-.75L2.5 17.5l1.583-4.75a6.983 6.983 0 0 1-.75-3.167A7.083 7.083 0 0 1 7.25 3.25a6.983 6.983 0 0 1 3.167-.75h.416A7.066 7.066 0 0 1 17.5 9.167v.416z"/></symbol><symbol id="icon-message-circle-1" viewBox="0 0 24 24"><path stroke="#767676" stroke-linecap="round" stroke-linejoin="round" stroke-width="2" d="M21 11.5a8.38 8.38 0 0 1-.9 3.8 8.5 8.5 0 0 1-7.6 4.7 8.38 8.38 0 0 1-3.8-.9L3 21l1.9-5.7a8.38 8.38 0 0 1-.9-3.8 8.5 8.5 0 0 1 4.7-7.6 8.38 8.38 0 0 1 3.8-.9h.5a8.48 8.48 0 0 1 8 8v.5z"/></symbol><symbol id="icon-message-circle-fill" viewBox="0 0 24 24"><path fill="#F26E22" stroke="#F26E22" stroke-linecap="round" stroke-linejoin="round" stroke-width="2" d="M21 11.5a8.38 8.38 0 0 1-.9 3.8 8.5 8.5 0 0 1-7.6 4.7 8.38 8.38 0 0 1-3.8-.9L3 21l1.9-5.7a8.38 8.38 0 0 1-.9-3.8 8.5 8.5 0 0 1 4.7-7.6 8.38 8.38 0 0 1 3.8-.9h.5a8.48 8.48 0 0 1 8 8v.5z"/></symbol><symbol id="icon-image" viewBox="0 0 22 22"><path stroke="#fff" stroke-linecap="round" stroke-linejoin="round" stroke-width="1.5" d="M17.417 2.75H4.583c-1.012 0-1.833.82-1.833 1.833v12.834c0 1.012.82 1.833 1.833 1.833h12.834c1.012 0 1.833-.82 1.833-1.833V4.583c0-1.012-.82-1.833-1.833-1.833z"/><path stroke="#fff" stroke-linecap="round" stroke-linejoin="round" stroke-width="1.5" d="M7.792 9.167a1.375 1.375 0 1 0 0-2.75 1.375 1.375 0 0 0 0 2.75zM19.25 13.75l-4.583-4.583L4.583 19.25"/></symbol><symbol id="icon-post-album-off" viewBox="0 0 26 26"><path fill="#DBDBDB" stroke="#DBDBDB" stroke-linecap="round" d="M10.833 3.25H3.25v7.583h7.583V3.25zm11.917 0h-7.583v7.583h7.583V3.25zm0 11.917h-7.583v7.583h7.583v-7.583zm-11.917 0H3.25v7.583h7.583v-7.583z"/></symbol><symbol id="icon-home-fill" viewBox="0 0 24 24"><path fill="#F26E22" stroke="#F26E22" stroke-linecap="round" stroke-linejoin="round" stroke-width="2" d="M3 9l9-7 9 7v11a2 2 0 0 1-2 2H5a2 2 0 0 1-2-2V9z"/><path fill="#fff" d="M8 21V11h8v10"/><path stroke="#F26E22" stroke-linecap="round" stroke-linejoin="round" stroke-width="2" d="M8 21V11h8v10"/></symbol><symbol id="icon-post-list-off" viewBox="0 0 26 26"><path fill="#DBDBDB" stroke="#DBDBDB" stroke-linecap="round" d="M22.75 3.25H3.25v4.333h19.5V3.25zm0 7.583H3.25v4.334h19.5v-4.334zm0 7.584H3.25v4.333h19.5v-4.333z"/></symbol><symbol id="icon-home" viewBox="0 0 24 24"><path stroke="#767676" stroke-linecap="round" stroke-linejoin="round" stroke-width="2" d="M3 9l9-7 9 7v11a2 2 0 0 1-2 2H5a2 2 0 0 1-2-2V9z"/><path stroke="#767676" stroke-linecap="round" stroke-linejoin="round" stroke-width="2" d="M9 21v-9h6v9"/></symbol><symbol id="icon-user-fill" viewBox="0 0 24 24"><path fill="#F26E22" d="M20 22v-3a4 4 0 0 0-4-4H8a4 4 0 0 0-4 4v3"/><path stroke="#F26E22" stroke-linecap="round" stroke-linejoin="round" stroke-width="2" d="M20 22v-3a4 4 0 0 0-4-4H8a4 4 0 0 0-4 4v3"/><path stroke="#F26E22" stroke-linecap="round" stroke-width="2" d="M4 22h16"/><path fill="#F26E22" stroke="#F26E22" stroke-linecap="round" stroke-linejoin="round" stroke-width="2" d="M12 11a4 4 0 1 0 0-8 4 4 0 0 0 0 8z"/></symbol><symbol id="icon-post-album-on" viewBox="0 0 26 26"><path fill="#767676" stroke="#767676" stroke-linecap="round" d="M10.833 3.25H3.25v7.583h7.583V3.25zm11.917 0h-7.583v7.583h7.583V3.25zm0 11.917h-7.583v7.583h7.583v-7.583zm-11.917 0H3.25v7.583h7.583v-7.583z"/></symbol><symbol id="icon-share" viewBox="0 0 20 20"><path stroke="#767676" stroke-linecap="round" stroke-linejoin="round" stroke-width="1.5" d="M14 6.667a2.5 2.5 0 1 0 0-5 2.5 2.5 0 0 0 0 5zM4 12.5a2.5 2.5 0 1 0 0-5 2.5 2.5 0 0 0 0 5zm10 5.833a2.5 2.5 0 1 0 0-5 2.5 2.5 0 0 0 0 5zm-7.842-7.075l5.692 3.317m-.009-9.15L6.159 8.742"/></symbol><symbol id="icon-post-list-on" viewBox="0 0 26 26"><path fill="#767676" stroke="#767676" stroke-linecap="round" d="M22.75 3.25H3.25v4.333h19.5V3.25zm0 7.583H3.25v4.334h19.5v-4.334zm0 7.584H3.25v4.333h19.5v-4.333z"/></symbol><symbol id="icon-search" viewBox="0 0 24 24"><path stroke="#767676" stroke-linecap="round" stroke-linejoin="round" stroke-width="2" d="M11 19a8 8 0 1 0 0-16 8 8 0 0 0 0 16zm10 2l-4.35-4.35"/></symbol><symbol id="img-button" viewBox="0 0 36 36"><circle cx="18" cy="18" r="18" fill="#C4C4C4"/><path stroke="#fff" stroke-linecap="round" stroke-linejoin="round" stroke-width="1.5" d="M24.417 9.75H11.583c-1.012 0-1.833.82-1.833 1.833v12.834c0 1.012.82 1.833 1.833 1.833h12.834c1.012 0 1.833-.82 1.833-1.833V11.583c0-1.012-.82-1.833-1.833-1.833z"/><path stroke="#fff" stroke-linecap="round" stroke-linejoin="round" stroke-width="1.5" d="M14.792 16.167a1.375 1.375 0 1 0 0-2.75 1.375 1.375 0 0 0 0 2.75zM26.25 20.75l-4.583-4.583L11.583 26.25"/></symbol><symbol id="icon-user" viewBox="0 0 24 24"><path stroke="#767676" stroke-linecap="round" stroke-linejoin="round" stroke-width="2" d="M20 22v-3a4 4 0 0 0-4-4H8a4 4 0 0 0-4 4v3"/><path stroke="#767676" stroke-linecap="round" stroke-width="2" d="M4 22h16"/><path stroke="#767676" stroke-linecap="round" stroke-linejoin="round" stroke-width="2" d="M12 11a4 4 0 1 0 0-8 4 4 0 0 0 0 8z"/></symbol><symbol id="message-circle" viewBox="0 0 24 24"><path fill="#F2C94C" d="M21 11.5a8.38 8.38 0 0 1-.9 3.8 8.5 8.5 0 0 1-7.6 4.7 8.38 8.38 0 0 1-3.8-.9L3 21l1.9-5.7a8.38 8.38 0 0 1-.9-3.8 8.5 8.5 0 0 1 4.7-7.6 8.38 8.38 0 0 1 3.8-.9h.5a8.48 8.48 0 0 1 8 8v.5z"/></symbol><symbol id="s-icon-more-vertical" viewBox="0 0 18 18"><path fill="#C4C4C4" stroke="#C4C4C4" stroke-linecap="round" stroke-linejoin="round" d="M9 9.75a.75.75 0 1 0 0-1.5.75.75 0 0 0 0 1.5zM9 4.5A.75.75 0 1 0 9 3a.75.75 0 0 0 0 1.5zM9 15a.75.75 0 1 0 0-1.5.75.75 0 0 0 0 1.5z"/></symbol><symbol id="x" viewBox="0 0 22 25"><g filter="url(#a)"><path fill="#fff" fill-rule="evenodd" d="M16.354 6.354a.5.5 0 0 0-.708-.708L11 10.293 6.354 5.646a.5.5 0 1 0-.708.708L10.293 11l-4.647 4.646a.5.5 0 0 0 .708.708L11 11.707l4.646 4.647a.5.5 0 0 0 .708-.708L11.707 11l4.647-4.646z" clip-rule="evenodd" filter="url(#b)"/></g><defs><filter id="a" width="30" height="30" x="-4" y="0" color-interpolation-filters="sRGB" filterUnits="userSpaceOnUse"><feFlood flood-opacity="0" result="BackgroundImageFix"/><feColorMatrix in="SourceAlpha" result="hardAlpha" values="0 0 0 0 0 0 0 0 0 0 0 0 0 0 0 0 0 0 127 0"/><feOffset dy="4"/><feGaussianBlur stdDeviation="2"/><feComposite in2="hardAlpha" operator="out"/><feColorMatrix values="0 0 0 0 0 0 0 0 0 0 0 0 0 0 0 0 0 0 0.25 0"/><feBlend in2="BackgroundImageFix" result="effect1_dropShadow_11786_4304"/><feBlend in="SourceGraphic" in2="effect1_dropShadow_11786_4304" result="shape"/></filter><filter id="b" width="15" height="15" x="3.5" y="3.5" color-interpolation-filters="sRGB" filterUnits="userSpaceOnUse"><feFlood flood-opacity="0" result="BackgroundImageFix"/><feColorMatrix in="SourceAlpha" result="hardAlpha" values="0 0 0 0 0 0 0 0 0 0 0 0 0 0 0 0 0 0 127 0"/><feOffset/><feGaussianBlur stdDeviation="1"/><feComposite in2="hardAlpha" operator="out"/><feColorMatrix values="0 0 0 0 0 0 0 0 0 0 0 0 0 0 0 0 0 0 0.5 0"/><feBlend in2="BackgroundImageFix" result="effect1_dropShadow_11786_4304"/><feBlend in="SourceGraphic" in2="effect1_dropShadow_11786_4304" result="shape"/></filter></defs></symbol><symbol id="icon-heart" viewBox="0 0 20 20"><path stroke="#767676" stroke-linecap="round" stroke-linejoin="round" stroke-width="1.5" d="M16.92 4.013a4.301 4.301 0 0 0-1.397-.951 4.235 4.235 0 0 0-3.296 0 4.3 4.3 0 0 0-1.397.951L10 4.86l-.83-.846a4.266 4.266 0 0 0-3.045-1.285A4.266 4.266 0 0 0 3.08 4.013a4.432 4.432 0 0 0-1.262 3.104A4.43 4.43 0 0 0 3.08 10.22l.83.846L10 17.273l6.09-6.207.83-.846c.4-.407.718-.891.934-1.424a4.46 4.46 0 0 0 0-3.359 4.395 4.395 0 0 0-.934-1.424z"/></symbol><symbol id="upload-file" viewBox="0 0 50 50"><circle cx="25" cy="25" r="25" fill="#F26E22"/><path stroke="#fff" stroke-linecap="round" stroke-linejoin="round" stroke-width="1.5" d="M33.167 14.5H16.833a2.333 2.333 0 0 0-2.333 2.333v16.334a2.333 2.333 0 0 0 2.333 2.333h16.334a2.333 2.333 0 0 0 2.333-2.333V16.833a2.333 2.333 0 0 0-2.333-2.333z"/><path stroke="#fff" stroke-linecap="round" stroke-linejoin="round" stroke-width="1.5" d="M20.917 22.667a1.75 1.75 0 1 0 0-3.5 1.75 1.75 0 0 0 0 3.5zM35.5 28.5l-5.833-5.833L16.833 35.5"/></symbol></svg>