<svg width="158" height="164" viewBox="0 0 158 164" fill="none" xmlns="http://www.w3.org/2000/svg">
<g filter="url(#filter0_d_11786_4213)">
<path d="M104.73 2.31579C81.2418 5.70645 71.29 21.6262 71.29 21.6262C70.0525 18.3766 68.4601 15.2725 66.5414 12.3699C66.4021 12.1645 66.2017 12.0078 65.9684 11.9216C65.7351 11.8354 65.4806 11.8242 65.2406 11.8894C62.5535 12.7255 60.0565 14.0776 57.8904 15.8694C57.7674 15.9686 57.6654 16.0912 57.5905 16.2301C57.5155 16.3689 57.469 16.5213 57.4538 16.6783C57.4385 16.8353 57.4548 16.9937 57.5017 17.1443C57.5485 17.295 57.625 17.4348 57.7267 17.5556C61.4204 22.1275 64.4237 27.2128 66.6415 32.6504C66.655 32.6594 66.6708 32.6642 66.687 32.6642C66.7032 32.6642 66.719 32.6594 66.7325 32.6504C70.6857 32.053 74.6781 31.7499 78.6765 31.7438H79.6954C81.4692 29.5317 88.6466 20.8103 94.9052 16.096C95.0507 15.9746 95.2368 15.9123 95.4264 15.9215C95.616 15.9307 95.7951 16.0107 95.9282 16.1456C96.0612 16.2805 96.1385 16.4603 96.1444 16.6494C96.1504 16.8385 96.0847 17.0228 95.9604 17.1658C92.8038 21.1548 88.683 25.8419 84.4166 31.7982C84.4071 31.8125 84.4015 31.829 84.4003 31.846C84.399 31.8631 84.4022 31.8802 84.4095 31.8957C84.4169 31.9111 84.428 31.9245 84.442 31.9344C84.456 31.9443 84.4723 31.9505 84.4894 31.9524C88.781 32.2633 93.0402 32.9212 97.2249 33.9196C97.2376 33.926 97.2516 33.9294 97.2658 33.9294C97.28 33.9294 97.294 33.926 97.3067 33.9196C107.313 25.2798 109.06 12.8141 109.205 6.24135C109.211 5.67757 109.094 5.11928 108.863 4.60445C108.633 4.08963 108.294 3.63035 107.869 3.25787C107.444 2.88539 106.944 2.60845 106.402 2.44588C105.861 2.28332 105.29 2.23895 104.73 2.31579Z" fill="#DBDBDB"/>
<path d="M78.6947 36.0954C43.745 36.0954 15.3994 60.3106 15.3994 90.1828C15.3994 108.641 26.2246 124.933 42.7443 134.697L37.7684 151.496C37.573 152.153 37.5776 152.853 37.7817 153.508C37.9858 154.162 38.3802 154.742 38.9149 155.173C39.4497 155.604 40.1007 155.867 40.7857 155.929C41.4706 155.991 42.1586 155.849 42.7625 155.521L65.7409 143.155C70.0184 143.897 74.3531 144.261 78.6947 144.243C113.654 144.243 141.999 120.028 141.999 90.1556C141.999 60.2834 113.654 36.0954 78.6947 36.0954Z" fill="#DBDBDB"/>
<path d="M62.5117 74.8594V94.0339H66.4214V98.7339H62.5117V106.262H57.4789V98.7339H42.7549V94.0754C45.195 90.8866 47.5936 87.684 49.9505 84.4674C52.3075 81.2509 54.706 78.0482 57.1461 74.8594H62.5117ZM57.4789 94.117V84.4258C57.4789 84.2317 57.4789 83.8851 57.4789 83.386C57.5066 82.8869 57.5343 82.36 57.5621 81.8054L48.4116 94.117H57.4789Z" fill="white"/>
<path d="M90.6164 90.8312C90.6164 93.5763 90.3252 95.961 89.7429 97.9852C89.1606 99.9817 88.3426 101.645 87.2889 102.976C86.2629 104.28 85.0429 105.25 83.6287 105.888C82.2145 106.526 80.6756 106.845 79.0118 106.845C77.4036 106.845 75.8923 106.526 74.4782 105.888C73.0917 105.25 71.8717 104.28 70.818 102.976C69.792 101.645 68.9879 99.9817 68.4056 97.9852C67.8233 95.961 67.5321 93.5763 67.5321 90.8312C67.5321 88.0583 67.8233 85.6736 68.4056 83.6771C68.9879 81.6529 69.792 79.9892 70.818 78.6859C71.8717 77.355 73.0917 76.3706 74.4782 75.7328C75.8923 75.0951 77.4036 74.7762 79.0118 74.7762C80.6756 74.7762 82.2145 75.0951 83.6287 75.7328C85.0429 76.3706 86.2629 77.355 87.2889 78.6859C88.3426 79.9892 89.1606 81.6529 89.7429 83.6771C90.3252 85.6736 90.6164 88.0583 90.6164 90.8312ZM84.7933 90.8312C84.7933 88.6129 84.6269 86.7828 84.2942 85.3409C83.9892 83.8712 83.5732 82.7205 83.0464 81.8886C82.5195 81.029 81.8956 80.4329 81.1747 80.1001C80.4815 79.7396 79.7605 79.5594 79.0118 79.5594C78.2909 79.5594 77.5838 79.7396 76.8906 80.1001C76.2251 80.4329 75.6289 81.029 75.1021 81.8886C74.5752 82.7205 74.1454 83.8712 73.8127 85.3409C73.5077 86.7828 73.3552 88.6129 73.3552 90.8312C73.3552 93.0217 73.5077 94.838 73.8127 96.2799C74.1454 97.7218 74.5752 98.8725 75.1021 99.7321C75.6289 100.592 76.2251 101.188 76.8906 101.521C77.5838 101.853 78.2909 102.02 79.0118 102.02C79.7605 102.02 80.4815 101.853 81.1747 101.521C81.8956 101.188 82.5195 100.592 83.0464 99.7321C83.5732 98.8725 83.9892 97.7218 84.2942 96.2799C84.6269 94.838 84.7933 93.0217 84.7933 90.8312Z" fill="white"/>
<path d="M112.066 74.8594V94.0339H115.976V98.7339H112.066V106.262H107.033V98.7339H92.3093V94.0754C94.7495 90.8866 97.148 87.684 99.505 84.4674C101.862 81.2509 104.26 78.0482 106.701 74.8594H112.066ZM107.033 94.117V84.4258C107.033 84.2317 107.033 83.8851 107.033 83.386C107.061 82.8869 107.089 82.36 107.117 81.8054L97.966 94.117H107.033Z" fill="white"/>
<path d="M48.0572 54C47.8406 56 48.1222 60 50.9807 60C53.8393 60 54.229 56 53.9042 54" stroke="white" stroke-width="2" stroke-linecap="round"/>
<path d="M36.0572 65C35.8406 67 36.1222 71 38.9807 71C41.8393 71 42.229 67 41.9042 65" stroke="white" stroke-width="2" stroke-linecap="round"/>
</g>
<defs>
<filter id="filter0_d_11786_4213" x="-4" y="0" width="166" height="166" filterUnits="userSpaceOnUse" color-interpolation-filters="sRGB">
<feFlood flood-opacity="0" result="BackgroundImageFix"/>
<feColorMatrix in="SourceAlpha" type="matrix" values="0 0 0 0 0 0 0 0 0 0 0 0 0 0 0 0 0 0 127 0" result="hardAlpha"/>
<feOffset dy="4"/>
<feGaussianBlur stdDeviation="2"/>
<feComposite in2="hardAlpha" operator="out"/>
<feColorMatrix type="matrix" values="0 0 0 0 0 0 0 0 0 0 0 0 0 0 0 0 0 0 0.25 0"/>
<feBlend mode="normal" in2="BackgroundImageFix" result="effect1_dropShadow_11786_4213"/>
<feBlend mode="normal" in="SourceGraphic" in2="effect1_dropShadow_11786_4213" result="shape"/>
</filter>
</defs>
</svg>
